<svg xmlns="http://www.w3.org/2000/svg" viewBox="0 0 256 256">
	<path fill-rule="evenodd" clip-rule="evenodd" d="M69.46,7.75c-4.01,36.21-8.44,71.98-29.24,91.39C8.5,89.42,2.26,54.23,0,15.06 C11.54,0.68,51.32-6.52,69.46,7.75z"/>
	<path fill-rule="evenodd" clip-rule="evenodd" d="M102.35,139.35c-4.21-44.62,44.33-148.51,91.39-87.73 c5.8,7.5,16.58,23.78,14.62,36.56C203.06,122.83,132.33,132.63,102.35,139.35z"/>
	<path fill-rule="evenodd" clip-rule="evenodd" d="M237.61,190.52c6.55,24.47-9.73,52.13-25.59,65.8 c-37.92-8.38-68.04-24.57-73.11-65.8C171.61,192.62,213.04,173.21,237.61,190.52z"/>
</svg>
