<svg xmlns="http://www.w3.org/2000/svg" viewBox="0 0 46.186 46.186">
		<path d="M21.806,2.537c0.394-0.224,0.84-0.342,1.292-0.342c0.452,0,0.898,0.118,1.294,0.342l2.244,1.276l0.421-0.237
			C26.854,1.566,25.157,0,23.095,0s-3.758,1.565-3.964,3.574l0.429,0.24L21.806,2.537z"/>
		<path d="M29.86,11.696l0.258,0.345l2.568-0.26c0.088-0.008,0.175-0.012,0.262-0.012c0.825,0,1.611,0.396,2.104,1.061l1.533,2.078
			l0.482-0.046c0.627-1.919-0.289-4.04-2.174-4.875c-1.688-0.748-3.612-0.231-4.717,1.14C30.077,11.313,29.972,11.503,29.86,11.696z
			"/>
		<path d="M39.272,16.97c-0.115-0.159-0.3-0.253-0.495-0.253c-0.021,0-0.038,0.002-0.058,0.004l-2.612,0.247
			c-0.027,0.004-0.055,0.004-0.082,0.004c-0.257,0-0.499-0.121-0.651-0.33l-1.934-2.619c-0.116-0.157-0.3-0.248-0.492-0.248
			c-0.021,0-0.041,0.001-0.062,0.003l-3.237,0.327c-0.027,0.002-0.055,0.004-0.081,0.004c-0.257,0-0.5-0.12-0.654-0.328
			l-0.173-0.233c-0.13,0.206-0.262,0.412-0.4,0.623c-0.999,1.534-1.771,2.669-2.386,3.508c0.229,2.289,0.684,4.681,1.05,6.395
			L24.602,29.5v-7.195v-2.959v-3.283c2.084-2.877,5.63-8.151,5.63-10.925c0-0.219-0.115-0.42-0.303-0.529
			c-0.096-0.056-0.202-0.083-0.309-0.083c-0.104,0-0.207,0.026-0.301,0.078l-2.288,1.287c-0.124,0.07-0.262,0.106-0.399,0.106
			c-0.137,0-0.276-0.036-0.401-0.108L23.4,4.281C23.306,4.228,23.204,4.2,23.098,4.2s-0.208,0.028-0.302,0.081l-2.828,1.608
			c-0.125,0.072-0.265,0.108-0.403,0.108c-0.138,0-0.276-0.036-0.401-0.106l-2.291-1.288c-0.093-0.053-0.197-0.079-0.301-0.079
			c-0.106,0-0.214,0.028-0.31,0.085c-0.188,0.108-0.299,0.311-0.299,0.529c0,2.776,3.553,8.061,5.638,10.938v3.28v2.923v7.223
			l-2.415-5.432l-0.002-0.004c0.368-1.71,0.819-4.094,1.049-6.377c-0.613-0.841-1.389-1.979-2.392-3.521
			c-0.136-0.208-0.268-0.413-0.396-0.616l-0.17,0.229c-0.155,0.207-0.398,0.328-0.654,0.328c-0.026,0-0.055-0.002-0.082-0.004
			l-3.237-0.327c-0.021-0.002-0.04-0.005-0.061-0.005c-0.193,0-0.376,0.093-0.492,0.25l-1.935,2.619
			c-0.154,0.209-0.396,0.33-0.654,0.33c-0.026,0-0.053,0-0.079-0.004L7.47,16.721c-0.02-0.002-0.039-0.004-0.059-0.004
			c-0.194,0-0.383,0.094-0.498,0.253c-0.128,0.177-0.151,0.405-0.067,0.604c0,0.003,0,0.003,0,0.003
			c1.167,2.534,6.5,5.935,9.581,7.687l2.355,5.316l1.994,1.994c0.247-0.21,0.49-0.387,0.824-0.523c0.416-0.212,0.963-0.33,1.5-0.33
			c0.536,0,1,0.12,1.5,0.331c0.334,0.138,0.569,0.314,0.816,0.524l1.99-1.99l2.352-5.307c3.082-1.781,8.452-5.169,9.576-7.702
			C39.424,17.375,39.4,17.146,39.272,16.97z"/>
		<path d="M9.602,14.908l1.533-2.077c0.492-0.665,1.279-1.063,2.106-1.063c0.085,0,0.17,0.004,0.263,0.013l2.566,0.26l0.256-0.342
			c-0.112-0.196-0.219-0.389-0.323-0.578c-1.104-1.366-3.025-1.882-4.709-1.134c-1.886,0.835-2.802,2.956-2.173,4.875L9.602,14.908z
			"/>
		<path d="M25.394,38.07c-0.24,0.201-0.541,0.369-0.792,0.502c-0.5,0.212-0.964,0.33-1.5,0.33c-0.537,0-1.084-0.118-1.5-0.33
			c-0.334-0.133-0.559-0.301-0.798-0.502l-1.899,4.279c-0.337,0.76,0.005,1.647,0.764,1.984c0.198,0.088,0.409,0.129,0.612,0.129
			c0.535,0,1.07-0.287,1.321-0.775v0.994c0,0.83,0.67,1.504,1.5,1.504c0.831,0,1.5-0.674,1.5-1.504v-0.994
			c0.251,0.488,0.779,0.775,1.314,0.775c0.203,0,0.41-0.041,0.608-0.129c0.759-0.337,1.101-1.227,0.764-1.984L25.394,38.07z"/>
		<path d="M19.504,35.312c0-0.734,0.221-1.418,0.601-1.987l-2.614-2.614c-0.278-0.277-0.652-0.427-1.03-0.427
			c-0.188,0-0.371,0.036-0.552,0.11c-0.544,0.227-0.895,0.756-0.895,1.346v7.143c0,0.59,0.351,1.121,0.895,1.348
			c0.181,0.074,0.366,0.11,0.554,0.11c0.379,0,0.751-0.149,1.03-0.427l2.612-2.614C19.726,36.73,19.504,36.048,19.504,35.312z"/>
		<path d="M30.286,30.396c-0.181-0.076-0.37-0.111-0.557-0.111c-0.38,0-0.752,0.148-1.032,0.427l-2.612,2.614
			c0.379,0.568,0.603,1.253,0.603,1.988c0,0.733-0.224,1.416-0.604,1.985l2.613,2.614c0.28,0.279,0.651,0.427,1.03,0.427
			c0.188,0,0.378-0.036,0.559-0.11c0.544-0.227,0.899-0.758,0.899-1.347v-7.142C31.187,31.152,30.83,30.621,30.286,30.396z"/>
		<circle cx="23.095" cy="35.312" r="2.589"/>
</svg>
