<svg xmlns="http://www.w3.org/2000/svg" xmlns:xlink="http://www.w3.org/1999/xlink" viewBox="0 0 1109.9 261.37"><defs><style>.cls-1{fill:none;}.cls-2{clip-path:url(#clip-path);}.cls-3{fill:#97171c;}</style><clipPath id="clip-path" transform="translate(-45.05 -524.35)"><rect class="cls-1" width="1200" height="1200"/></clipPath></defs><title>LOGOTIPO NEGRO COLOR</title><g id="Capa_2" data-name="Capa 2"><g id="Capa_1-2" data-name="Capa 1"><g class="cls-2"><g class="cls-2"><path d="M170.34,656.49c13.5,8.91,27.26,16.88,39.73,26.52,12.67,9.79,24.4,20.88,35.89,32.07,7.6,7.4,9.42,15,5.51,19.1-5.69,6-12.85,3.33-18.92.88-39.1-15.74-72.67-39.93-107.49-63.18-1.89-1.26-4-2.19-7-3.84-4.86,16.15-9.36,31.71-14.25,47.15-3.93,12.41-8,24.79-12.7,36.94-2.74,7.1-8.64,21.74-18.64,19-7.85-2.13-9.33-14.29-8.16-20.94,3.63-20.83,8-41.55,12.12-62.29.67-3.38,1.68-6.7,2.55-10.1-6.51-.81-12.6-1-18.41-2.41-7.18-1.71-13.92-4.73-15.26-13.32-3.13-20,26-23.13,39.66-25,2.47-.35,5.84-.24,7.29-1.27,6.44-20.06,16.67-39.13,25.38-59.35-12.33,4.25-23.65,9.06-32.48,18.29-4.7,4.91-1.88,9.29,2.65,13.22-9.8.93-16.57-2.85-15.16-11.47,1.49-9.12,9.89-15.81,17.58-20.23a311.06,311.06,0,0,1,31.07-15.75c6.12-2.66,10.54-6.24,13.85-12,3.6-6.23,7.77-12.16,11.92-18,3.36-4.79,8.15-7.69,13.85-5.28,5.88,2.49,5.12,8.31,4.44,13.43a68.82,68.82,0,0,1-2,8.37c12.14,0,24.59-1.55,36.45.46a87.33,87.33,0,0,1,30.84,11.86c16.46,10.28,20.08,28.56,8.58,44.2-7.45,10.13-17.11,19.05-27.13,26.77-11.2,8.61-23.91,15.25-36,22.74-1.92,1.19-3.87,2.33-5.73,3.44m-44.85-14.1c16.32-6.74,34.53-15.43,49-25.54,13.87-9.69,28.74-20.48,38.75-34.26,1.68-2.3,3.29-4.87,3.35-7.72.2-9.06-18.74-10.09-24.91-10.52-11.33-.8-22.7.6-33.89,2.29-8.13,1.23-16.67,35.19-20,42.51-2.49,6.43-11.61,32.93-12.35,33.24m-41.38,18c.18-.67.79-3,.94-3.72-2.8-.81-18.26-5.83-17.49,1.39.58,5.37,13.34,2.67,16.55,2.33" transform="translate(-45.05 -524.35)"/><path d="M1022.4,674.51a1.27,1.27,0,0,0,2.26,1.08c3.46-4.69,6.45-10,9.75-14.63a230.57,230.57,0,0,1,27.27-31.53c5-4.93,10.24-9.69,15.55-14.33,4.87-4.27,9.78-9.58,15.89-12.05a19.28,19.28,0,0,1,3.65-1,7.59,7.59,0,0,1,8.82,6.3,10.37,10.37,0,0,1-.1,4.45c-3.06,10.71-7.33,21.07-10.93,31.63-10.29,30.12-21.12,60.08-30.41,90.5-3.89,12.77-4.49,26.55-6.5,39.89-.76,5-1.7,10.13-7.85,10.83s-9.89-3.67-10.83-8.86c-1.68-9.3-3.13-18.84-2.92-28.25.71-32.54,10.64-63.13,20.92-93.66a3.27,3.27,0,0,0,.21-2.08c-1.1-3.16-4.8,3.19-5.27,4-1.66,2.74-3,5.66-4.67,8.38-2.62,4.21-5.13,8.47-7.35,12.9-5.29,10.58-10.71,21.1-15.64,31.84-4.81,10.48-7.92,21.71-12.73,32.12-1.22,2.64-2.59,6.61-5.87,7.39-12.87,3-16.78-18-17.95-26.65-2.42-17.91.31-35.58,3.09-53.64A1.44,1.44,0,0,0,988.2,668a54.45,54.45,0,0,0-3.59,5.49c-7.05,12.79-13.25,26-19.09,39.41-2.95,6.76-5.51,13.76-8.66,20.43-2,4.16-6.27,10.53-11.25,6.15-3.67-3.23-3.79-10.43-3.8-15-.06-37.33,7.75-72.94,24.68-106.32a30.78,30.78,0,0,1,8.85-10.51A6.75,6.75,0,0,1,986,613.9,118.32,118.32,0,0,1,981.1,636c-4.28,14-9.16,27.82-13.71,41.74a14.5,14.5,0,0,0-.52,2.26,1.18,1.18,0,0,0,2.22.7c12.54-24.92,30.78-45.36,50.72-64.45a30.9,30.9,0,0,1,4.32-3.52c7-4.64,13.71-1.75,13.51,6.54-.16,6.85-1.76,13.8-3.68,20.42-2,6.9-4.23,13.75-6.48,20.57-1.49,4.52-3.81,9.44-5.08,14.3" transform="translate(-45.05 -524.35)"/><path d="M628.79,623.08c-3.86-1.23-7.95-1.51-12-2.1s-8.1-1.53-11.4-3.88-5.68-6.38-5-10.38,5-7.33,8.83-6a14.48,14.48,0,0,1,3.52,2.14,35.66,35.66,0,0,0,19.81,6.68,7.87,7.87,0,0,0,3.91-.64,8.63,8.63,0,0,0,2.75-2.79c4.55-6.48,34.32-64.86,46.32-51.09a6.84,6.84,0,0,1,1.41,4.2c.23,4-1.11,7.86-2.44,11.62q-7,19.7-14.57,39.19,12.8-.21,25.58.48c3.28.17,7.5,1.26,7.74,4.54.27,3.68-4.66,5.1-8.35,5.23l-16.46.6c-4.34.16-9,.46-12.3,3.32-2,1.78-3.21,4.33-4.33,6.8-12.56,27.8-25.23,55.93-30.87,85.91A93.08,93.08,0,0,0,629,735.79c0,2.17.36,4.63,2.12,5.9,3,2.15,6.9-.85,9.29-3.63q20.46-23.79,38.91-49.2c.93-1.28,2-2.65,3.51-3.06,2.7-.72,5.27,2.18,5.31,5s-1.56,5.33-3.11,7.66q-12.59,18.85-25.15,37.72C656,742,652,748,646.71,752.59s-12.15,7.93-19.18,7.46c-24.92-1.68-27-37.2-24.32-55.31,1.94-13.19,6.32-25.88,10.67-38.48l14.91-43.18" transform="translate(-45.05 -524.35)"/><path d="M337.25,635.37a1.39,1.39,0,0,1-2.33.8,1.77,1.77,0,0,1-.16-.22c-7.41-12.56-18-10.44-26.85-.3a107.5,107.5,0,0,0-23.08,42.78,108.94,108.94,0,0,0-3.53,24.35c-.21,6-1.3,13.28,2.06,18.71C294,738.75,311.94,708,316.88,700.35c10.77-16.7,18.91-35.12,22.35-54.78,1.75-10,1.68-19.89-4.35-29-1.16-1.73-1.53-6-.57-6.71a9.45,9.45,0,0,1,7.57-1.12c9.43,3.47,14.76,11,17.66,20.27,4.49,14.39,3.92,29,1.13,43.54-3.63,18.88-9.85,37.06-20.82,52.89a93.64,93.64,0,0,1-22,22.85,34.66,34.66,0,0,1-43.5-2.28c-14.58-13.16-16.41-35.23-13.21-53.44,3.75-21.37,12.22-41,26.27-57.66q2.81-3.33,5.83-6.46c7.81-8.09,17.41-12.3,28.81-11.79,11.64.52,17.14,7.12,15.23,18.66" transform="translate(-45.05 -524.35)"/><path d="M932.87,700.51a4.27,4.27,0,0,1,.58,2.79c-.28,3.45-2,6.61-3.77,9.56a104.47,104.47,0,0,1-34,34.23c-6.77,4.19-14.29,7.66-22.24,7.92-8.13.26-16.16-2.93-22.47-8-7.52-6.1-13.87-15.33-15.49-25-1.83-10.91.73-22.14,4.76-32.27,9-22.72,26-42.38,47.63-53.76,10.65-5.6,22.86-9.25,34.71-7.16a23.82,23.82,0,0,1,11.57,5c6.16,5.34,7.75,14.58,5.83,22.51s-6.77,14.78-11.84,21.16c-8.27,10.4-17.8,20.35-30,25.57a48.84,48.84,0,0,1-26.94,3.28c-1.89,4.7-1.27,9.58-1,14.38s2.52,9.93,7,11.77c4.77,2,10.14-.47,14.62-3a159.69,159.69,0,0,0,36-27.69c1.22-1.28,3-2.69,4.55-1.77a2.23,2.23,0,0,1,.58.52M918.26,644c-7.5.14-15.36,6.84-20,11.8a89.85,89.85,0,0,0-9.71,13.38c-1.21,2-9.65,15.77-2.17,14.81a7.82,7.82,0,0,0,2.86-1.16c13.57-7.75,28.46-18.72,34.58-33.69a4.15,4.15,0,0,0,.42-2.53c-.33-1.28-1.72-2-3-2.3a11.4,11.4,0,0,0-3-.31" transform="translate(-45.05 -524.35)"/><path d="M445.2,655.74a3.76,3.76,0,0,1-6.81-2.17c0-2.24,0-4.22.13-6.19.29-3.7-.85-5.46-4.75-6.06a25.59,25.59,0,0,0-21.45,6.2c-6.09,5.36-16.53,18.4-2.93,22.79.91.3,1.8.61,2.68,1,8.84,3.42,18.12,6.37,26,11.39,12.75,8.1,16.6,22.11,8.86,34.76-14.27,23.31-35,38.1-63.1,38.92-21,.61-30.19-14.26-21.14-33.15,3.49-7.29,8.23-14,12.77-20.74,2-3,7.53-8,11.25-4.73,4.38,3.78-4.21,15.5-5.54,19.68-2.17,6.8.86,10.47,7.12,7.76a160.51,160.51,0,0,0,29.6-16.31c6.68-4.76,5.3-11.29-2.46-14.48-11-4.51-25.32-5.32-34.71-12.89a20.42,20.42,0,0,1-5.17-26.26c11.29-20.55,28.32-34.42,52.82-36.32,8.43-.66,15.92,2.25,19.72,10.39,4.28,9.16,3,18.21-2.86,26.41Z" transform="translate(-45.05 -524.35)"/><path d="M590.65,656.17a3.77,3.77,0,0,1-6.82-2.18c0-2.23,0-4.21.14-6.18.28-3.7-.86-5.46-4.76-6.06a25.53,25.53,0,0,0-21.44,6.2c-6.1,5.36-16.54,18.4-2.94,22.79.91.29,1.8.61,2.69,1,8.83,3.42,18.11,6.36,26,11.39,12.74,8.1,16.59,22.1,8.85,34.76-14.27,23.31-35,38.1-63.1,38.91-21,.62-30.18-14.25-21.14-33.15,3.49-7.28,8.24-14,12.77-20.73,2-3,7.53-8,11.25-4.74,4.38,3.79-4.21,15.5-5.54,19.69-2.17,6.8.86,10.47,7.12,7.76a160.78,160.78,0,0,0,29.6-16.31c6.68-4.76,5.3-11.29-2.46-14.49-11-4.5-25.32-5.32-34.7-12.88A20.41,20.41,0,0,1,521,655.64c11.3-20.55,28.32-34.42,52.82-36.32,8.44-.66,15.93,2.24,19.72,10.39,4.28,9.16,3,18.21-2.86,26.41Z" transform="translate(-45.05 -524.35)"/><path d="M798.74,651.69c2.26-2.65,4.67-5.44,7-8.26,6.11-7.24,13.09-13.27,22.52-15.72,7.54-2,14.22,2.38,15.13,10.15a35.91,35.91,0,0,1-.38,11.8q-3.62,16-8.22,31.74c-1.18,4.06-2.48,9.05-8.51,8.43-5.73-.59-6.92-5.22-7.12-9.69-.24-5.61-.2-11.24-.15-17.48.06-7.26-7.53-4-10.73-1.63a70.35,70.35,0,0,0-14.17,14.25c-8.29,11.09-12,24.55-15.2,37.81-3.09,12.9-7.62,46.09-27.55,40.63-5.55-1.52-8.13-6.1-7.79-11.17,2.45-36.67,9.62-72.25,30-103.64,3.44-5.28,28-30.8,28-12.41,0,8.2-1.76,16.4-2.83,25.19" transform="translate(-45.05 -524.35)"/><path d="M460.67,725.62a72.06,72.06,0,0,1,0-14.83c1.33-12.83,3-26.15,6.09-38.88,2.94-12.16,6.89-26.72,15-36.55,4-4.82,10.36-8.43,16.39-10.57,7.18-2.54,12.38,1.79,11.15,9.46-1.57,9.75-4.73,19.3-7.84,28.73-4.34,13.12-8.67,26.28-13.2,39.32-2.46,7.1-5.2,14.11-7.38,21.31-2.09,6.86-2.16,14.34-4.23,21-1,3.05-3.28,6.83-6,7.93-4.38,1.8-7-2.14-7.59-6-1-7-1.73-14-2.44-21" transform="translate(-45.05 -524.35)"/><path d="M694.54,730a147.91,147.91,0,0,1,.42-25c1.73-16.85,4.27-33.46,10.08-49.45A116.25,116.25,0,0,1,715.22,635c3.78-6.21,9.9-9.7,17.25-10.66,6.6-.87,11.26,2.24,10.34,8.73A156.12,156.12,0,0,1,736,660.58c-7.52,22.47-12.84,36.19-20.39,58.64a171.72,171.72,0,0,0-5.1,23.6c-.46,4.49-.35,9.3-6.33,10-6.15.74-7.62-4.26-8.21-8.45-.67-4.77-1.06-9.58-1.39-14.41" transform="translate(-45.05 -524.35)"/><path d="M748.38,601.67c-6.23,8.46-31.81,13.18-25.43-4.32,2.29-6.29,8.66-13.31,14.55-16.38,10.2-5.31,13.62,4.82,13.18,13.57a12.74,12.74,0,0,1-2.3,7.13" transform="translate(-45.05 -524.35)"/><path d="M1124.53,590.37a2.22,2.22,0,0,1-3-2.12c.08-5.08,2.3-9.54,4.81-13.82,3.34-5.69,7-15.43,14.74-7.08a56.36,56.36,0,0,1,4.54,5.76,5.68,5.68,0,0,1-1.17,7.8,29.81,29.81,0,0,1-4.84,3.13c-4.75,2.33-9.72,4.2-15,6.33" transform="translate(-45.05 -524.35)"/><path d="M1131.83,605.68a2.2,2.2,0,0,1,1.51-3.34c5.21-.86,10.16-1.7,15.13-2.41,5.41-.78,7.47,1.87,6,6.9-.75,2.62-3.14,9.78-6.51,9.95-4.81.24-13.7-7.23-16.17-11.1" transform="translate(-45.05 -524.35)"/><path d="M1105.12,580.66c-3.92-2.51-5.7-8-7-12.21-.6-1.94-1.69-4.25-.74-6.05s4.2-3.35,6-3.81c2.83-.74,6.8-.58,9,1,1.27.91.5,5.48-.21,8.17-1,3.79-1.58,9.86-4.57,12.73a1.79,1.79,0,0,1-2.44.19" transform="translate(-45.05 -524.35)"/><path class="cls-3" d="M481.86,573.05a1.47,1.47,0,0,1,.95-1.84c.77-.21,1.44.27,2.15,1.11,3.46,4.09,6.92,8.18,10.49,12.17,8.6,9.61,19.52,12.63,32,11,6.28-.82,12.54-1.77,18.81-2.6h.21a1.27,1.27,0,0,1,.95,2,.93.93,0,0,1-.14.14c-5,4.15-9.91,8.58-15.28,12.28-14.94,10.3-32.25,6.39-40.95-9.68-3.66-6.76-5.6-14.45-8.3-21.73-.35-.94-.61-1.91-.88-2.86" transform="translate(-45.05 -524.35)"/><path class="cls-3" d="M515.15,589.91c3.33-2.21,6.7-4.36,10-6.66,9.39-6.63,10.57-11.8,5.1-21.88-.64-1.19-1.3-2.36-2-3.56a1.4,1.4,0,0,1,1-2.06c13.52-2.32,21.54,8.64,20.15,19.5-.37,2.93-1.42,5.77-2.1,8.66-.58,2.46-2.25,3.62-4.58,4-7.2,1.27-14.39,2.64-21.62,3.68-1.83.27-3.77-.27-5.68-.56a.63.63,0,0,1-.26-1.15" transform="translate(-45.05 -524.35)"/><path class="cls-3" d="M531.84,550.48a.68.68,0,0,1-.6,1c-4,0-7.65-.07-11.34,0a46.34,46.34,0,0,0-6.2.71c-9.47,1.59-13.22,8.28-14.81,16.82-.6,3.19-1.09,6.39-1.64,9.63-10.75-5.3-12.71-17.12-4.5-25.52,11-11.24,27.3-10.94,39-2.78a.24.24,0,0,1,.08.09" transform="translate(-45.05 -524.35)"/><path class="cls-3" d="M503.69,569.31c1.66,11.53,8.61,14.28,19.26,11.17-4.13,5.37-11.45,7.41-16,5-4.91-2.59-6.15-7.94-3.28-16.19" transform="translate(-45.05 -524.35)"/><path class="cls-3" d="M526.18,576.28c-.82-10.83-7.44-14.22-16.55-14.62,7.56-3.91,12.86-3.47,15.93-.67,3.33,3,3.76,8.37.62,15.29" transform="translate(-45.05 -524.35)"/><path class="cls-3" d="M509.8,577.79a84.59,84.59,0,0,1,.08-9.81c.38-3.22,4.92-4.69,7.4-2.67,2.29,1.87,2.34,3.31.19,5.32l-7.67,7.16" transform="translate(-45.05 -524.35)"/></g></g></g></g></svg>